<svg xmlns="http://www.w3.org/2000/svg" xmlns:xlink="http://www.w3.org/1999/xlink" id="Layer_1" x="0" y="0" version="1.1" viewBox="0 0 33 26" xml:space="preserve" style="enable-background:new 0 0 33 26"><style type="text/css">.st0,.st1{fill:none;stroke:#adb0b1;stroke-linecap:round}.st1{stroke:#a6c88e;stroke-width:1.5}</style><title>icon_moneytime</title><desc>Created with Sketch.</desc><g id="Build-Form-Details"><g id="B01" transform="translate(-898.000000, -611.000000)"><g id="Modal" transform="translate(33.000000, 32.000000)"><g id="Fixed-Sidebar---m1.small" transform="translate(773.000000, 139.000000)"><g id="Configuation-Details"><g id="icon_moneytime" transform="translate(93.000000, 441.000000)"><ellipse id="Oval" cx="15" cy="2" class="st0" rx="6" ry="2"/><path id="Oval_1_" d="M9,2.2l0.1,3c0,0,1.3,1.7,5.9,1.7l0,0c3.3,0,6-0.9,6-2V2.4" class="st0"/><path id="Oval_2_" d="M9.1,5.1V8c0,0,2,2.3,5.9,2l0,0c3.3,0,6-0.9,6-2V4.9" class="st0"/><path id="Oval_3_" d="M14,18.9c0.5,0.1,0.9,0.1,1.6,0.1c0.8,0,0.9,0,1.6-0.1" class="st0"/><path id="Oval_4_" d="M14,15.9c0.3,0.1,1,0.1,1.5,0.1c0.8,0,1,0,1.7-0.1" class="st0"/><ellipse id="Oval_5_" cx="6" cy="13" class="st0" rx="6" ry="2"/><path id="Oval_6_" d="M0,13l0.1,3c0,0,1.2,2.2,5.9,2l0,0c3.3,0,6-0.9,6-2v-3.1" class="st0"/><path id="Oval_7_" d="M0.1,15.9V19c0,0,1.3,2.2,5.9,2l0,0c3.3,0,6-0.9,6-2v-3.1" class="st0"/><path id="Oval_8_" d="M0.1,18.9v3.3c0,0,0.6,1.8,5.9,1.8l0,0c3.3,0,6-0.9,6-2v-3.1" class="st0"/><path id="Oval_9_" d="M9.1,7.9v2 M13.4,12.9c0.5,0.1,1.8,0.2,3.1,0.1c1-0.1,2.1-0.4,2.6-0.5 M21,10.5V9.6V7.9" class="st0"/><circle id="Oval-2" cx="25" cy="17" r="6" class="st1"/><polyline id="Line" points="24.5 14.5 24.5 17 26.7 19" class="st1"/></g></g></g></g></g></g></svg>